<svg id="Layer_1" data-name="Layer 1" xmlns="http://www.w3.org/2000/svg" viewBox="0 0 50 50"><title>random</title><path d="M24.93,0a14.84,14.84,0,0,1,2.41.76q10,5.19,19.93,10.46c1.35.72,1.36,1.71,0,2.42Q37.25,19,27.2,24.21a4.87,4.87,0,0,1-4.63-.07C16.14,20.79,9.73,17.4,3.33,14c-2.28-1.21-2.27-2,0-3.15C9.64,7.54,16,4.19,22.31.88A18.3,18.3,0,0,1,24.93,0Zm5.12,12.57c-1.26-.48-1.07-1.26-.82-2.1.59-1.91.05-2.86-2-3.54a7.82,7.82,0,0,0-1.68-.34,13.88,13.88,0,0,0-8.09,2.19c-1.23.71-2.33,1.61-3.63,2.52l2.9,1.48A32.73,32.73,0,0,1,20.39,10a5.71,5.71,0,0,1,2.84-.52c1.08,0,1.45.7,1.24,1.69a17.09,17.09,0,0,0-.39,1.72C24,13.83,25.19,15,26,14.64,27.33,14,28.62,13.31,30.05,12.57Zm5,2.56c-1.14-.59-2.1-1.12-3.1-1.59a1,1,0,0,0-.77,0c-1.3.63-2.57,1.3-4,2,1.15.59,2.18,1.13,3.23,1.63a1,1,0,0,0,.69-.06C32.38,16.5,33.64,15.84,35,15.13Z" transform="translate(0 0)"/><path d="M23.84,39.11v9.16c0,1.69-.91,2.16-2.53,1.31L2.49,39.68A4.21,4.21,0,0,1,0,35.77q0-9.24,0-18.49C0,15.69.85,15.2,2.34,16c6.43,3.35,12.85,6.7,19.24,10.11a4,4,0,0,1,2.25,3.68c0,3.11,0,6.22,0,9.34Zm-11.4-3c-.07-1.18.74-1.57,1.71-1.87s1.92-.92,2-2a6.59,6.59,0,0,0-.2-2.17c-.95-3.17-5.65-6.43-9.45-6.62v3.12c.46,0,.87,0,1.28,0a5.26,5.26,0,0,1,4.12,2c.89,1.2.54,2.15-.91,2.72a9.09,9.09,0,0,0-1.55.71c-.89.55-1.06,2-.31,2.4C10.17,34.92,11.26,35.47,12.44,36.09Zm-3.79-.44c0,1.18,0,2.2,0,3.23a.68.68,0,0,0,.22.53c1.14.63,2.31,1.23,3.6,1.91,0-1.22,0-2.28,0-3.33a.9.9,0,0,0-.47-.57C11,36.84,9.89,36.3,8.65,35.65Z" transform="translate(0 0)"/><path d="M50,26.66q0,4.59,0,9.16a4.18,4.18,0,0,1-2.44,3.85q-9.36,4.95-18.74,9.85a5.54,5.54,0,0,1-.86.39,1.21,1.21,0,0,1-1.7-.83,2.53,2.53,0,0,1-.09-.78q0-9.19,0-18.41a4.3,4.3,0,0,1,2.56-4l18-9.46c.33-.18.66-.36,1-.53,1.42-.66,2.25-.23,2.28,1.21,0,1,0,1.94,0,2.91v6.6ZM36,36.8l.38.19c.55-.28,1.09-.59,1.65-.85,1.13-.54,2.3-1,2.27-2.46,0-.16.14-.33.24-.48.62-.92,1.26-1.83,1.87-2.76a6.88,6.88,0,0,0,1.35-3.8c0-2.05-1.1-2.76-3.23-2.09a17.94,17.94,0,0,0-6.27,3.86.62.62,0,0,0-.21.45c0,.9,0,1.79,0,2.54.87-.71,1.74-1.48,2.68-2.17a10.12,10.12,0,0,1,2-1.13c.69-.28,1.2,0,1.11.73a5.17,5.17,0,0,1-.64,1.89c-.63,1.09-1.48,2.07-2.08,3.17A22.28,22.28,0,0,0,36,36.8Zm4-.13c-1.17.61-2.28,1.18-3.38,1.77a.69.69,0,0,0-.36.47c0,1.09,0,2.18,0,3.33,3.92-1.69,3.92-1.69,3.84-5.34A1.45,1.45,0,0,0,40,36.67Z" transform="translate(0 0)"/></svg>