<svg id="Layer_1" data-name="Layer 1" xmlns="http://www.w3.org/2000/svg" viewBox="0 0 50 50"><title>sequence</title><path d="M17.54,40.17h9l-1.44-1.73c2.47-.77,3.17,1.44,4.71,2.54-1.47,1.18-2.16,3.36-4.7,2.61L26.41,42a7.07,7.07,0,0,0-1.08-.16c-2.2,0-4.4,0-6.6,0-.93,0-1.24.29-1.44,1.23A8.77,8.77,0,0,1,8.17,50a9,9,0,0,1-1.56-17.6,8.76,8.76,0,0,1,10.73,6.73C17.41,39.43,17.46,39.75,17.54,40.17Z" transform="translate(0 0)"/><path d="M26.58,8.16l-1.49-1.7c2.49-.87,3.14,1.41,4.73,2.47-1.52,1.2-2.21,3.35-4.76,2.66l1.45-1.74H17.58c-.07.31-.16.66-.24,1a8.78,8.78,0,0,1-9.73,7A9,9,0,0,1,7.73.08a8.7,8.7,0,0,1,9.5,6.71c.26,1.15.68,1.43,1.75,1.39C21.39,8.1,23.81,8.16,26.58,8.16Z" transform="translate(0 0)"/><path d="M32.5,41a8.75,8.75,0,1,1,17.5.06A8.75,8.75,0,1,1,32.5,41Z" transform="translate(0 0)"/><path d="M41.24,17.89A8.75,8.75,0,0,1,32.5,9,8.75,8.75,0,1,1,50,9,8.82,8.82,0,0,1,41.24,17.89Z" transform="translate(0 0)"/><path d="M35,16.64l1,1.2L20,31.61l2.26.37c-1.38,2.19-3.3,1.12-5.23,1.08.43-1.81-.42-3.9,1.9-5v2.33Z" transform="translate(0 0)"/></svg>