<svg id="Layer_1" data-name="Layer 1" xmlns="http://www.w3.org/2000/svg" viewBox="0 0 48 48"><title>colorpicker</title><path d="M40.88,20.58c.44.41.88.76,1.26,1.17a1.75,1.75,0,0,1,0,2.61c-1.23,1.25-2.47,2.48-3.72,3.71a1.75,1.75,0,0,1-2.61,0c-.37-.36-.71-.75-1.11-1.18l-.6.57c-4.41,4.4-8.8,8.81-13.24,13.18a13.34,13.34,0,0,1-5.45,3.52,2.14,2.14,0,0,1-.48.13c-2.6.26-4.52,1.74-6.22,3.53-1.55,1.63-2.6,1.55-4,0-1-1-2-2-3-3a1.88,1.88,0,0,1,0-2.87c.59-.62,1.18-1.24,1.75-1.87a8.6,8.6,0,0,0,2.22-4.4,9.87,9.87,0,0,1,2.63-5.16c2.22-2.39,4.52-4.71,6.82-7,2.5-2.54,5-5,7.54-7.56l.5-.53c-.4-.38-.79-.72-1.15-1.09a1.79,1.79,0,0,1,0-2.67q1.82-1.86,3.66-3.67a1.76,1.76,0,0,1,2.66,0c.39.37.74.78,1.15,1.22.23-.2.39-.35.55-.51,1.73-1.73,3.44-3.5,5.21-5.2a7.73,7.73,0,0,1,8-2,7.7,7.7,0,0,1,5.6,6.06,7.76,7.76,0,0,1-2.21,7.39c-1.7,1.75-3.44,3.45-5.17,5.17ZM25.54,18.06a7.26,7.26,0,0,1-.59.78c-2.71,2.72-5.43,5.41-8.12,8.13-1.92,1.94-3.83,3.89-5.71,5.87A7.8,7.8,0,0,0,9,37a8.66,8.66,0,0,1-1.93,4.2c-.54.66-1.09,1.31-1.62,1.94l1.33,1.39c.32-.28.63-.53.92-.79a10.37,10.37,0,0,1,5.57-2.87,6.76,6.76,0,0,0,3.19-1.49,28.8,28.8,0,0,0,2.22-1.92q6.39-6.36,12.77-12.75c.13-.13.24-.28.34-.39Z" transform="translate(-1 -1)"/></svg>