<svg id="Layer_1" data-name="Layer 1" xmlns="http://www.w3.org/2000/svg" viewBox="0 0 23.42 20.57"><title>laso</title><path d="M9,16.06a3.8,3.8,0,0,1,.12,3.56,4.36,4.36,0,0,1-2.56,1.95l-.51-1.7c.32-.19.64-.35.92-.55A1.7,1.7,0,0,0,7.44,17c-.08-.17-.2-.15-.34-.11a2.89,2.89,0,0,1-1.9-.17A2.71,2.71,0,0,1,3.63,14a.24.24,0,0,0-.14-.27,5.4,5.4,0,0,1-1.61-1.36,4,4,0,0,1-.77-3.5A7.06,7.06,0,0,1,3.44,5.13a15.11,15.11,0,0,1,5-2.92,18.9,18.9,0,0,1,8.09-1.16,14.54,14.54,0,0,1,4.08.79,5.47,5.47,0,0,1,3.23,2.63,5,5,0,0,1-.21,5.06,8.65,8.65,0,0,1-3,2.86,19.3,19.3,0,0,1-6.43,2.36,22.92,22.92,0,0,1-4,.39.53.53,0,0,0-.31.13C9.58,15.52,9.29,15.79,9,16.06ZM15.16,2.83a15.77,15.77,0,0,0-5.11.76,13.93,13.93,0,0,0-5.6,3.1A5.17,5.17,0,0,0,3,8.89a2.45,2.45,0,0,0,0,1.86A3.18,3.18,0,0,0,4.35,12.1a.27.27,0,0,0,.36,0,2.8,2.8,0,0,1,2.44-.46,5.84,5.84,0,0,1,2.61,1.52.55.55,0,0,0,.36.15A18.71,18.71,0,0,0,13.77,13a17.15,17.15,0,0,0,6-2.2,6.92,6.92,0,0,0,2.4-2.29,3.25,3.25,0,0,0-.46-3.87A5,5,0,0,0,19.4,3.36,15.31,15.31,0,0,0,15.16,2.83ZM8.27,14.27a3.35,3.35,0,0,0-1.82-.9.91.91,0,1,0,0,1.8A3.31,3.31,0,0,0,8.27,14.27Z" transform="translate(-1 -1)"/></svg>