<svg id="Layer_1" data-name="Layer 1" xmlns="http://www.w3.org/2000/svg" viewBox="0 0 50 50"><title>pattern</title><path d="M49.89,43.34,43.5,49.76l-6.13-6.09L31.3,50,25.12,43.5,19,50l-6.31-6.38-6,6.14L.48,43.57l5.88-6L0,31.45l6.42-6.31L.19,19,6.6,12.63.19,6.57,6.47.27l6.09,6.24L18.74,0,25,6.34,30.9,0l6.28,6.43,6-6.22,6.18,6.2-5.81,6L50,18.61l-6.4,6.28L49.79,31,43.63,37.3ZM18.51,12.62l-5.77-5.8L6.86,12.59l5.88,5.91Zm6.27,5.85,5.94-5.95L25,6.78l-5.87,6Zm12.49.06,5.93-5.87L37.29,6.77l-5.85,5.81Zm-24.57.52L6.85,24.91l5.89,5.94L18.52,25ZM24.89,30.84,30.72,25l-5.78-5.8L19.1,25Zm12.41,0L43.13,25l-5.77-5.84L31.5,25Zm-18.84,6.7L12.67,31.7,6.89,37.49l5.79,5.82Zm6.41,5.8,5.91-5.95L25,31.54l-5.78,5.92Zm18.37-5.8-5.8-5.84-5.79,5.78,5.65,6ZM6.57,3.1,3.15,6.29,6.26,9.54,9.75,6.41ZM18.85,3,15.47,6.32l3.21,3.3,3.5-3.22ZM34.39,6.51,31.18,3,27.83,6.33l3.41,3.43Zm12.55-.12L43.59,3,40.28,6.44l3.3,3.33ZM6.57,15.54,3.06,18.8l3.32,3.41L9.75,18.8ZM22,18.93,18.78,15.4l-3.21,3.28,3.3,3.49Zm9.07,3.2,3.4-3.31-3.27-3.36-3.38,3.35Zm15.79-3.29-3.33-3.43-3.08,3.26,3.14,3.52ZM3.15,31.07l3.18,3.41L9.6,31.34,6.44,27.89Zm15.64,3.52,3.35-3.31-3.21-3.35L15.49,31.2Zm15.54-3.18-3.08-3.49-3.32,3.25,3.3,3.42Zm12.4-.08-3-3.23-3.44,3.08,3.31,3.41ZM6.24,46.82l3.4-3.31L6.47,40.25,3.06,43.68Zm15.93-3.19-3.36-3.39-3.29,3.3L18.82,47Zm8.93-3.29-3.18,3.19L31.19,47l3.33-3.33ZM46.89,43.7l-3.3-3.46L40.3,43.53,43.54,47Z" transform="translate(0 0)"/></svg>